<?xml version="1.0" encoding="UTF-8" standalone="no"?>
<!-- Created with Inkscape (http://www.inkscape.org/) -->

<svg
   xmlns:dc="http://purl.org/dc/elements/1.1/"
   xmlns:cc="http://creativecommons.org/ns#"
   xmlns:rdf="http://www.w3.org/1999/02/22-rdf-syntax-ns#"
   xmlns:svg="http://www.w3.org/2000/svg"
   xmlns="http://www.w3.org/2000/svg"
   xmlns:sodipodi="http://sodipodi.sourceforge.net/DTD/sodipodi-0.dtd"
   xmlns:inkscape="http://www.inkscape.org/namespaces/inkscape"
   width="735"
   height="250"
   id="svg2"
   version="1.1"
   inkscape:version="0.48.5 r10040"
   sodipodi:docname="New document 1">
  <defs
     id="defs4" />
  <sodipodi:namedview
     id="base"
     pagecolor="#ffffff"
     bordercolor="#666666"
     borderopacity="1.0"
     inkscape:pageopacity="0.0"
     inkscape:pageshadow="2"
     inkscape:zoom="1"
     inkscape:cx="348.31789"
     inkscape:cy="843.24881"
     inkscape:document-units="px"
     inkscape:current-layer="g3005"
     showgrid="false"
     borderlayer="false"
     inkscape:window-width="1680"
     inkscape:window-height="998"
     inkscape:window-x="-8"
     inkscape:window-y="-8"
     inkscape:window-maximized="1" />
  <metadata
     id="metadata7">
    <rdf:RDF>
      <cc:Work
         rdf:about="">
        <dc:format>image/svg+xml</dc:format>
        <dc:type
           rdf:resource="http://purl.org/dc/dcmitype/StillImage" />
        <dc:title></dc:title>
      </cc:Work>
    </rdf:RDF>
  </metadata>
  <g
     inkscape:label="Layer 1"
     inkscape:groupmode="layer"
     id="layer1"
     transform="translate(0,-802.36218)">
    <g
       id="g3005"
       transform="matrix(698.875,0,0,-252.5,35.786577,586.00525)">
      <path
         style="fill:#000000"
         d="m -0.23995084,1.2026462 c -6.5796e-4,0.00183 -0.001201,0.00464 -0.001201,0.00626 0,0.00161 0.005392,0.017754 0.0119844,0.035871 0.006591,0.018118 0.0127357,0.036653 0.0136531,0.041189 0.001545,0.00765 0.001669,0.046367 0.001669,0.529138 0,0.2864902 -3.7161e-4,0.5246018 -8.2486e-4,0.5291366 -5.1494e-4,0.00514 -0.005748,0.022007 -0.0138794,0.044739 -0.0110573,0.030911 -0.0128884,0.03722 -0.0119749,0.041233 0.001006,0.00441 0.006543,0.00478 0.0800827,0.00544 0.0708423,6.293e-4 0.0791649,2.557e-4 0.0805696,-0.00362 0.001396,-0.00388 0.001568,-0.026855 0.001568,-0.215458 0,-0.2269954 1.1067e-4,-0.2220635 -0.00482,-0.2147611 -0.002432,0.0036 -0.001764,-0.00222 -0.0205269,0.1787591 -0.008535,0.082324 -0.016368,0.1529868 -0.0174084,0.1570283 -0.003705,0.014401 -0.006884,0.016272 -0.0276477,0.016272 l -0.0189641,0 0,-0.2418915 0,-0.2418915 0.007755,0 c 0.004677,0 0.008397,0.00136 0.009372,0.00343 8.9159e-4,0.00189 0.006025,0.028794 0.0114118,0.059785 0.0124834,0.071837 0.0129525,0.074216 0.0145607,0.074216 0.00351,0 0.003592,-0.00451 0.003332,-0.1871846 -2.4111e-4,-0.1695776 -3.5472e-4,-0.179754 -0.002016,-0.1806402 -0.001411,-7.523e-4 -0.003925,0.011426 -0.0126593,0.061351 -0.005994,0.03426 -0.0108964,0.063257 -0.0108964,0.064439 0,0.00118 -9.2496e-4,0.00542 -0.002059,0.00939 -0.001931,0.00681 -0.00257,0.00724 -0.010426,0.00724 l -0.008367,0 0,-0.2418358 c 0,-0.2125305 1.8742e-4,-0.2431328 0.001545,-0.2525368 0.001201,-0.00833 0.004229,-0.016504 0.0136531,-0.036879 0.0151267,-0.032708 0.0173752,-0.039115 0.0159367,-0.045426 -9.822e-4,-0.00431 -0.005231,-0.00474 -0.0516412,-0.0054 -0.0385082,-5.434e-4 -0.0508599,8.1e-5 -0.0517739,0.00262 z m 1.23622913,-8e-7 c -6.579e-4,0.00183 -0.0012,0.00464 -0.0012,0.00626 0,0.00161 0.0056,0.018371 0.012448,0.037246 0.010757,0.029661 0.012652,0.036203 0.013916,0.048199 0.00129,0.012066 0.00143,0.081239 0.0012,0.5305123 -2.168e-4,0.4290226 -4.909e-4,0.5177957 -0.00161,0.5235024 -7.39e-4,0.00377 -0.00699,0.022649 -0.013897,0.041934 -0.010703,0.029879 -0.01238,0.035772 -0.011453,0.039857 0.00101,0.00441 0.00439,0.00485 0.042688,0.00561 0.045009,8.77e-4 0.055839,-9.92e-4 0.069597,-0.012039 0.031414,-0.025201 0.049301,-0.086888 0.056524,-0.1949267 0.00262,-0.039308 0.00262,-0.1552849 -1.58e-5,-0.1951625 -0.00592,-0.089578 -0.018543,-0.1526286 -0.037587,-0.1876574 l -0.00371,-0.00683 0.00461,-0.0081 c 0.011398,-0.020004 0.022382,-0.057392 0.027587,-0.093882 0.00544,-0.038167 0.00548,-0.0399 0.00551,-0.244167 1e-5,-0.1132248 3.97e-4,-0.1915642 9.679e-4,-0.195707 5.199e-4,-0.0038 0.00724,-0.025643 0.014951,-0.048543 0.00769,-0.022898 0.01382,-0.043063 0.013621,-0.04481 -5.39e-4,-0.00447 -0.038971,-0.00586 -0.046854,-0.00169 -0.012162,0.00645 -0.021068,0.026394 -0.02557,0.057203 l -0.00226,0.015522 -5.388e-4,0.2089064 c -4.193e-4,0.162474 -8.344e-4,0.2113502 -0.00185,0.2199014 -0.00413,0.034676 -0.012121,0.062809 -0.021441,0.07547 -0.00386,0.00528 -0.00699,0.007 -0.014151,0.0079 l -0.00919,0.00114 0,-0.2444285 0,-0.2444285 0.00248,-0.013594 c 0.00164,-0.00901 0.00616,-0.023234 0.013443,-0.042203 0.00918,-0.023899 0.010935,-0.029778 0.010676,-0.035734 l -2.992e-4,-0.00713 -0.048694,-7.105e-4 c -0.037048,-5.434e-4 -0.048984,8.26e-5 -0.049897,0.00262 z m 0.095839,0.6754939 c 0.0098,0.011889 0.016571,0.039369 0.020623,0.083771 0.00335,0.036717 0.00449,0.067086 0.00515,0.1376827 0.00115,0.1244826 -0.00365,0.1963234 -0.015224,0.228414 -0.00593,0.016424 -0.013021,0.023771 -0.024357,0.025285 l -0.00973,0.0013 0,-0.242587 0,-0.242587 0.00919,0.00121 c 0.00668,8.801e-4 0.010594,0.00293 0.014385,0.00751 z M -0.03958145,1.2346535 c 0,0.00126 0.002012,0.00794 0.004468,0.014842 l 0.004468,0.012544 0,0.1567307 c 0,0.086202 -2.703e-4,0.1586806 -6.0026e-4,0.161064 -3.304e-4,0.00238 -0.002787,0.00762 -0.005462,0.011657 -0.002674,0.00402 -0.004853,0.00867 -0.00484,0.010321 1.081e-5,0.00165 0.003027,0.00693 0.006703,0.011726 0.003676,0.00479 0.008552,0.013874 0.0108323,0.020167 0.0079,0.021775 0.007421,0.03363 0.007305,-0.1807858 l -1.0147e-4,-0.1903761 0.0045,-0.013321 c 0.002474,-0.00732 0.0045,-0.014118 0.0045,-0.015093 0,-9.774e-4 -0.00715,-0.00177 -0.0158879,-0.00177 -0.008738,0 -0.0158878,0.00104 -0.0158878,0.00229 z m 0.10360973,0.00337 c -0.006065,0.00832 -0.0101315,0.027267 -0.0128802,0.060037 -0.002366,0.028239 -0.003027,0.1325785 -0.001022,0.161953 0.002643,0.038713 0.008135,0.065238 0.0152653,0.073681 0.009125,0.010812 0.0178417,-0.00313 0.0216139,-0.034576 0.002565,-0.021373 0.001593,-0.025996 -0.002237,-0.010635 -0.001762,0.00707 -0.004383,0.015417 -0.005822,0.018555 -0.003205,0.00698 -0.008444,0.00742 -0.010546,8.953e-4 -0.00359,-0.011125 -0.004193,-0.027211 -0.004202,-0.1120127 -1.103e-5,-0.08723 9.0689e-4,-0.1137634 0.004501,-0.1301258 0.001593,-0.00725 0.00252,-0.00869 0.005609,-0.00869 0.003209,0 0.004378,0.00202 0.008782,0.015119 0.002796,0.00832 0.005362,0.015119 0.005705,0.015119 8.7541e-4,0 -0.001841,-0.020504 -0.00436,-0.03292 -0.002488,-0.012257 -0.008239,-0.022057 -0.0129388,-0.022053 -0.001837,1.3e-6 -0.005197,0.00254 -0.007466,0.00564 z m 0.0294464,-0.00339 c 0,0.00124 0.001564,0.00731 0.003477,0.013498 l 0.003477,0.011235 0,0.1811297 0,0.1811297 -0.003477,0.00933 c -0.001911,0.00513 -0.003477,0.010321 -0.003477,0.011535 0,0.00121 0.004693,0.00221 0.010426,0.00221 l 0.010426,0 0,-0.1926641 0,-0.192664 0.003477,-0.011235 c 0.001912,-0.00619 0.003477,-0.012257 0.003477,-0.013498 0,-0.00124 -0.006255,-0.00225 -0.013901,-0.00225 -0.007645,0 -0.013901,0.00102 -0.013901,0.00225 z m 0.0456957,0.00241 c -0.003993,0.00573 -0.007439,0.018812 -0.009198,0.034918 -7.3951e-4,0.00678 -0.001234,0.027703 -0.001239,0.052498 -9.94e-6,0.040405 5.173e-5,0.04159 0.003054,0.059099 0.002172,0.012666 0.005047,0.023069 0.00987,0.035734 0.0171175,0.044937 0.0153649,0.038148 0.0153473,0.059425 -2.014e-5,0.026018 -0.001337,0.032426 -0.006892,0.033529 -0.004952,9.837e-4 -0.01103,-0.00459 -0.0159562,-0.014662 -0.006613,-0.013498 -0.006734,-0.00643 -2.2446e-4,0.012939 0.005227,0.015546 0.0128352,0.026897 0.0180564,0.026938 0.007868,6.18e-5 0.0154644,-0.018058 0.0178515,-0.042579 6.7897e-4,-0.00698 0.001071,-0.050811 0.001075,-0.1200337 2.98e-6,-0.059972 2.7676e-4,-0.1109957 6.0838e-4,-0.1133871 7.8671e-4,-0.00567 0.004218,-0.00556 0.006525,2.167e-4 0.002559,0.00641 0.003167,0.00318 0.001493,-0.00792 -0.001732,-0.011466 -0.006041,-0.021374 -0.009298,-0.021374 -0.002945,0 -0.007155,0.00582 -0.009582,0.013239 -0.001817,0.00556 -0.00182,0.00556 -0.006033,-0.00267 -0.00535,-0.010444 -0.0108351,-0.012543 -0.0154585,-0.0059 z m 0.0155874,0.030787 c 0.002225,0.00918 0.002267,0.010744 0.002267,0.085899 0,0.042217 -3.9173e-4,0.076558 -8.7299e-4,0.076558 -0.001485,0 -0.008033,-0.023887 -0.0103401,-0.037718 -0.002025,-0.012121 -0.002192,-0.017262 -0.002192,-0.066856 0,-0.047241 2.1711e-4,-0.054639 0.0018,-0.061326 0.002479,-0.010471 0.006306,-0.00905 0.009339,0.00343 z m 0.032055,0.021446 c 0,0.033675 3.6344e-4,0.055833 8.9017e-4,0.054289 4.8966e-4,-0.00144 0.001861,-0.013129 0.003045,-0.025976 0.003831,-0.041535 0.007893,-0.060473 0.012962,-0.060473 0.005279,0 0.007304,0.013702 0.005812,0.039347 -0.0013,0.022342 -0.00478,0.045776 -0.0118399,0.079754 -0.008231,0.03961 -0.0111759,0.065191 -0.0112823,0.098051 -7.478e-5,0.023003 2.1069e-4,0.027574 0.002397,0.038376 0.002949,0.014571 0.008046,0.02485 0.0123103,0.024835 0.003012,-1.09e-5 0.009347,-0.0087 0.0107233,-0.014694 4.633e-4,-0.00202 0.001448,-0.00118 0.002979,0.00253 0.006228,0.015134 0.005762,0.018693 0.005762,-0.044008 0,-0.032966 -3.7524e-4,-0.056207 -8.9305e-4,-0.055321 -4.9109e-4,8.407e-4 -0.001455,0.00803 -0.002138,0.015968 -0.003931,0.045632 -0.008828,0.07079 -0.013778,0.07079 -0.004057,0 -0.005286,-0.00592 -0.005278,-0.025435 8.92e-6,-0.026449 0.00327,-0.051769 0.0114909,-0.089229 0.005545,-0.02527 0.009359,-0.049456 0.0115686,-0.073379 0.002814,-0.030458 0.002635,-0.046699 -7.2235e-4,-0.065038 -0.004866,-0.026603 -0.0155307,-0.034861 -0.0234409,-0.018158 l -0.003346,0.00706 -0.002803,-0.0081 c -0.001542,-0.00446 -0.003167,-0.0081 -0.00361,-0.0081 -4.4395e-4,0 -8.0719e-4,0.025604 -8.0719e-4,0.056899 z m 0.0476617,0 c 0,0.033675 3.6346e-4,0.055833 8.9066e-4,0.054289 4.8966e-4,-0.00144 0.001861,-0.013129 0.003047,-0.025976 0.003831,-0.041535 0.007893,-0.060473 0.012962,-0.060473 0.005279,0 0.007304,0.013702 0.005812,0.039347 -0.0013,0.022342 -0.00478,0.045776 -0.0118399,0.079754 -0.008231,0.03961 -0.0111759,0.065191 -0.0112823,0.098051 -7.477e-5,0.023003 2.1071e-4,0.027574 0.002397,0.038376 0.002949,0.014571 0.008045,0.02485 0.0123103,0.024835 0.003012,-1.09e-5 0.009348,-0.0087 0.0107233,-0.014694 4.6332e-4,-0.00202 0.001448,-0.00118 0.002979,0.00253 0.006228,0.015134 0.005762,0.018693 0.005762,-0.044008 0,-0.032966 -3.7521e-4,-0.056207 -8.9303e-4,-0.055321 -4.911e-4,8.407e-4 -0.001453,0.00803 -0.002138,0.015968 -0.003931,0.045632 -0.008828,0.07079 -0.013778,0.07079 -0.004058,0 -0.005286,-0.00592 -0.005278,-0.025435 8.91e-6,-0.026449 0.00327,-0.051769 0.0114909,-0.089229 0.005545,-0.02527 0.009358,-0.049456 0.0115686,-0.073379 0.002814,-0.030458 0.002636,-0.046699 -7.2186e-4,-0.065038 -0.004866,-0.026603 -0.0155308,-0.034861 -0.0234409,-0.018158 l -0.003346,0.00706 -0.002803,-0.0081 c -0.001542,-0.00446 -0.003167,-0.0081 -0.00361,-0.0081 -4.4397e-4,0 -8.0722e-4,0.025604 -8.0722e-4,0.056899 z m 0.0685138,-0.054308 c 0,0.00143 9.798e-4,0.00718 0.002179,0.012802 0.001841,0.00863 0.002139,0.013698 0.001922,0.032744 -3.8385e-4,0.033942 0.002573,0.064288 0.0108091,0.1109833 0.0110859,0.062838 0.014871,0.1049147 0.014871,0.1652281 -1.98e-6,0.036597 -0.001108,0.050525 -0.004505,0.056684 -0.006051,0.010975 -0.0137057,-0.00504 -0.0200306,-0.041899 -0.004097,-0.023884 -0.006874,-0.027701 -0.005906,-0.00811 0.001526,0.030833 0.008846,0.062872 0.0169907,0.07436 0.00607,0.00856 0.0107232,0.00877 0.0164753,7.437e-4 0.0168502,-0.023522 0.0156771,-0.1464624 -0.002274,-0.2384555 -0.009257,-0.047437 -0.0122476,-0.065124 -0.0134515,-0.079582 -0.001442,-0.017302 -0.001534,-0.035768 -2.2356e-4,-0.045308 9.3358e-4,-0.00679 0.001269,-0.00705 0.00931,-0.00705 0.0055,0 0.00867,0.00117 0.009302,0.00343 5.2735e-4,0.00188 0.00247,0.014888 0.004318,0.028884 0.001848,0.013997 0.003818,0.025025 0.004376,0.024509 5.5976e-4,-5.164e-4 0.001002,-0.00207 9.846e-4,-0.00346 -4.2657e-4,-0.032918 -0.001894,-0.080647 -0.002592,-0.084296 -8.32e-4,-0.00435 -0.002925,-0.0048 -0.0217376,-0.0048 -0.0123744,0 -0.020817,0.00105 -0.020817,0.00259 z M 0.42611476,1.234631 c 0,0.00123 0.001564,0.00731 0.003477,0.013498 l 0.003477,0.011235 0,0.1791703 0,0.1791705 -0.003477,0.011234 c -0.001912,0.00618 -0.003477,0.012298 -0.003477,0.013594 0,0.00129 0.004579,0.00199 0.0101766,0.00157 l 0.0101766,-7.835e-4 2.6717e-4,-0.062773 2.6707e-4,-0.062773 0.003437,0.00835 c 0.003827,0.0093 0.008696,0.012871 0.014184,0.010403 0.004508,-0.00203 0.008047,-0.00911 0.0106414,-0.021309 0.001894,-0.0089 0.001996,-0.015055 0.002274,-0.1327175 l 2.8663e-4,-0.123391 0.003437,-0.011112 c 0.001894,-0.00611 0.003437,-0.012134 0.003437,-0.013375 0,-0.00123 -0.006258,-0.00225 -0.0139009,-0.00225 -0.008572,0 -0.0139009,0.00105 -0.0139009,0.00274 0,0.0015 0.001564,0.00754 0.003479,0.013389 l 0.003479,0.010648 0,0.1169973 c 0,0.1151091 -3.462e-4,0.1292572 -0.003292,0.1344383 -0.004126,0.00727 -0.0102106,-0.00361 -0.012463,-0.022303 -7.6713e-4,-0.00636 -0.001132,-0.044484 -0.001132,-0.1191093 l 0,-0.1097658 0.003479,-0.011739 c 0.001914,-0.00645 0.003479,-0.012543 0.003479,-0.013511 0,-9.773e-4 -0.006258,-0.00177 -0.0139009,-0.00177 -0.007645,0 -0.0139009,0.00102 -0.0139009,0.00225 z m 0.0743853,0.00401 c -0.00673,0.012557 -0.00984,0.039442 -0.00984,0.08498 0,0.047281 0.002821,0.067428 0.0133096,0.095228 0.003799,0.010075 0.00884,0.023403 0.0111977,0.02963 0.004251,0.011221 0.004292,0.011494 0.00427,0.030237 -2.007e-5,0.026018 -0.001338,0.032426 -0.006896,0.033529 -0.004949,9.832e-4 -0.0110273,-0.00459 -0.0159543,-0.014662 -0.006761,-0.013806 -0.00672,-0.00621 7.161e-5,0.013675 0.0120035,0.035133 0.0272861,0.033717 0.0338407,-0.00313 0.002346,-0.013198 0.002356,-0.01358 0.002604,-0.1259374 1.3646e-4,-0.061985 4.8011e-4,-0.1154826 7.6332e-4,-0.1188843 6.6989e-4,-0.00804 0.004066,-0.00814 0.00711,-2.082e-4 0.002007,0.00521 0.002296,0.00537 0.002296,0.00123 0,-0.013184 -0.006236,-0.031953 -0.0106101,-0.031953 -0.002985,0 -0.007163,0.00585 -0.009664,0.013511 -0.001873,0.00574 -0.001935,0.00574 -0.003972,6.009e-4 -0.005908,-0.01491 -0.0131147,-0.01796 -0.0185366,-0.00784 z m 0.0166862,0.029187 c 0.002223,0.00918 0.002264,0.010744 0.002264,0.085899 0,0.042107 -2.6068e-4,0.07656 -5.793e-4,0.07656 -0.001616,0 -0.007915,-0.021881 -0.0102201,-0.035438 -0.002542,-0.014997 -0.002614,-0.016868 -0.002614,-0.069136 0,-0.047241 2.1717e-4,-0.054639 0.001801,-0.061326 0.002482,-0.010471 0.006308,-0.00905 0.009334,0.00344 z M 0.54526886,1.23463 c 0,0.00123 0.001564,0.00731 0.003479,0.013498 l 0.003479,0.011235 0,0.127951 0,0.1279511 -0.003479,0.00768 c -0.005712,0.012612 -0.004786,0.014548 0.006947,0.014548 l 0.010426,0 0,-0.00991 0,-0.00991 0.003458,0.0084 c 0.007833,0.019025 0.0195787,0.013885 0.0248448,-0.010866 0.001894,-0.0089 0.001997,-0.015055 0.002274,-0.1327176 l 2.8723e-4,-0.1233835 0.003437,-0.011112 c 0.001894,-0.00611 0.003437,-0.012134 0.003437,-0.013362 0,-0.00123 -0.006258,-0.00225 -0.0139009,-0.00225 -0.008572,0 -0.0139009,0.00105 -0.0139009,0.00274 0,0.00151 0.001564,0.00754 0.003479,0.013389 l 0.003479,0.010648 0,0.1169974 c 0,0.1151091 -3.4613e-4,0.1292572 -0.003292,0.1344368 -0.004126,0.00727 -0.0102106,-0.00361 -0.012463,-0.022303 -7.6712e-4,-0.00636 -0.001132,-0.044483 -0.001132,-0.1191094 l 0,-0.1097658 0.003479,-0.011739 c 0.001914,-0.00645 0.003479,-0.012543 0.003479,-0.013511 0,-9.774e-4 -0.006258,-0.00177 -0.0139009,-0.00177 -0.007648,0 -0.0139009,0.00101 -0.0139009,0.00225 z m 0.0761812,0.00323 c -0.007494,0.016368 -0.009633,0.044735 -0.0103428,0.1365789 -5.8838e-4,0.076735 2.2836e-4,0.1053592 0.003746,0.131421 0.004352,0.032184 0.0146622,0.041139 0.0232723,0.020211 l 0.003458,-0.0084 0,0.051045 0,0.051045 -0.003479,0.00963 c -0.001914,0.00529 -0.003479,0.010894 -0.003479,0.012462 0,0.00177 0.003912,0.00283 0.010426,0.00283 l 0.010426,0 0,-0.1926641 0,-0.192664 0.003479,-0.011235 c 0.001903,-0.00619 0.003479,-0.012298 0.003479,-0.013593 0,-0.0013 -0.004579,-0.002 -0.0101793,-0.00157 l -0.0101793,7.82e-4 -3.1079e-4,0.00892 -3.1092e-4,0.00892 -0.00388,-0.00863 c -0.005228,-0.01163 -0.0121399,-0.013821 -0.016128,-0.0051 z m 0.0158528,0.025437 c 0.003972,0.012148 0.004279,0.02105 0.004279,0.122132 0,0.081306 -2.505e-4,0.09892 -0.001523,0.1073784 -0.002059,0.013667 -0.004279,0.019941 -0.007041,0.019941 -0.005691,0 -0.007308,-0.027495 -0.007286,-0.1236945 2.048e-5,-0.073116 0.001204,-0.115983 0.003458,-0.1255064 0.001935,-0.00817 0.005496,-0.00829 0.008119,-2.494e-4 z m 0.0569094,0.025976 c 0,0.059465 6.5269e-4,0.066037 0.003345,0.033672 0.003468,-0.041705 0.008376,-0.065871 0.0133737,-0.065792 0.00365,5.82e-5 0.005016,0.00303 0.00609,0.013293 0.002147,0.020739 -0.002244,0.059536 -0.0120089,0.1058814 -0.008028,0.038148 -0.0110396,0.064491 -0.0111759,0.097934 -9.439e-5,0.023067 1.8236e-4,0.027544 0.002377,0.038376 0.005465,0.027023 0.0140044,0.032172 0.0215968,0.01302 0.002225,-0.00562 0.002244,-0.00562 0.00447,-2.134e-4 0.006168,0.014965 0.00572,0.01851 0.00572,-0.044145 0,-0.032966 -3.7534e-4,-0.056207 -8.9317e-4,-0.055321 -4.9108e-4,8.406e-4 -0.001461,0.00803 -0.002147,0.015968 -0.003923,0.045632 -0.008823,0.07079 -0.0137799,0.07079 -0.003396,0 -0.004621,-0.00381 -0.00529,-0.016494 -0.001245,-0.02368 0.002532,-0.05667 0.0108719,-0.095078 0.0173128,-0.079665 0.0187375,-0.1452752 0.003573,-0.1638492 -0.005641,-0.00691 -0.0109714,-0.00544 -0.0155775,0.00427 l -0.003305,0.00697 -0.002799,-0.0081 c -0.001544,-0.00446 -0.00317,-0.0081 -0.003613,-0.0081 -4.4399e-4,0 -8.0718e-4,0.025605 -8.0718e-4,0.056901 z m 0.0426981,-0.05465 c 0,0.00124 0.001564,0.00731 0.003474,0.013498 l 0.003474,0.011235 -2.283e-5,0.1796071 -2.284e-5,0.1796076 -0.003454,0.010608 c -0.001894,0.00584 -0.003454,0.011712 -0.003454,0.013061 0,0.00134 0.004685,0.00244 0.0104233,0.00244 l 0.0104233,0 0,-0.063506 0,-0.063506 0.003454,0.0084 c 0.007788,0.018901 0.0202307,0.013211 0.0251084,-0.01148 0.001555,-0.00784 0.001749,-0.021124 0.002011,-0.1321981 l 2.873e-4,-0.1234818 0.003435,-0.010526 c 0.001883,-0.00578 0.003435,-0.011766 0.003435,-0.013266 0,-0.00169 -0.005328,-0.00274 -0.013897,-0.00274 -0.0156342,0 -0.0162198,9.393e-4 -0.0104029,0.016571 l 0.003495,0.00941 -2.7755e-4,0.1214162 c -2.6252e-4,0.1149441 -3.7826e-4,0.1217243 -0.002166,0.1271999 -0.003981,0.012161 -0.009701,0.00473 -0.0129606,-0.016842 -0.001296,-0.00862 -0.001544,-0.02714 -0.001544,-0.1204454 l 0,-0.1102636 0.003474,-0.011739 c 0.001914,-0.00645 0.003473,-0.012544 0.003473,-0.013525 0,-9.775e-4 -0.006265,-0.00177 -0.013897,-0.00177 -0.007652,0 -0.013897,0.00101 -0.013897,0.00225 z m 0.0809229,0.00286 c -0.0112428,0.014128 -0.0159465,0.066713 -0.0151462,0.1690642 4.179e-4,0.054008 6.4001e-4,0.059698 0.003162,0.081044 0.003495,0.029566 0.008783,0.045669 0.015966,0.048652 0.0109305,0.00454 0.0185033,-0.011562 0.0230161,-0.048918 0.002713,-0.022437 0.002733,-0.023499 0.002772,-0.09416 2.889e-5,-0.072132 -4.8151e-4,-0.086432 -0.004177,-0.1168229 -0.00449,-0.037047 -0.0146973,-0.052543 -0.0255885,-0.03886 z m 0.0106565,0.02443 c 0.00285,0.0089 0.003923,0.034672 0.00447,0.1051397 5.5315e-4,0.073376 -5.0065e-4,0.1185939 -0.003181,0.1363251 -0.001307,0.00867 -0.001822,0.00963 -0.004704,0.00885 -0.002967,-7.915e-4 -0.003415,-0.00217 -0.005114,-0.015983 -0.003826,-0.031181 -0.00322,-0.202908 8.2779e-4,-0.2296949 0.001627,-0.010757 0.005114,-0.012843 0.00771,-0.00464 z m 0.0496274,-0.026448 c -0.005509,0.00439 -0.0105255,0.021507 -0.0134297,0.045737 -0.003491,0.029282 -0.004663,0.05888 -0.00465,0.1173888 1.977e-5,0.056409 0.001296,0.078696 0.006013,0.1053238 0.004077,0.022973 0.008903,0.032188 0.0168055,0.032188 0.0143649,0 0.0208275,-0.034285 0.0208438,-0.1106384 l 9.95e-6,-0.030923 -0.0145218,0 -0.0145218,0 5.0556e-4,-0.048791 c 7.3883e-4,-0.071774 0.003299,-0.088648 0.0134705,-0.088648 0.004131,0 0.004936,0.00119 0.009393,0.013974 0.002673,0.00769 0.005113,0.013321 0.005385,0.012517 2.9081e-4,-8.06e-4 1.472e-5,-0.00555 -6.1504e-4,-0.010539 -0.004063,-0.032271 -0.0134433,-0.046559 -0.0246941,-0.037581 z m 0.0116981,0.2133626 c -9.96e-6,0.049531 -0.0018,0.063908 -0.00799,0.063908 -0.00529,0 -0.006367,-0.00903 -0.006735,-0.056907 l -3.3732e-4,-0.042048 0.00754,0 0.00754,0 -9.96e-6,0.035046 z m 0.0248305,-0.1595654 c 0,0.059465 6.5335e-4,0.066037 0.00334,0.033672 0.00349,-0.042009 0.00837,-0.065834 0.01347,-0.065834 0.00435,0 0.00646,0.00879 0.0063,0.026204 -2.258e-4,0.026713 -0.00322,0.048709 -0.013252,0.097492 -0.00728,0.035378 -0.0101711,0.061773 -0.0102802,0.093458 -7.458e-5,0.023003 2.1078e-4,0.027574 0.002399,0.038376 0.00544,0.026939 0.013994,0.032164 0.021546,0.013157 l 0.00218,-0.0055 0.00402,0.00882 0.00402,0.00882 0,-0.056742 c 0,-0.032903 -3.753e-4,-0.056101 -8.963e-4,-0.055215 -4.911e-4,8.406e-4 -0.00146,0.00803 -0.00214,0.015968 -0.00393,0.045632 -0.00882,0.07079 -0.01378,0.07079 -0.00408,0 -0.00529,-0.00591 -0.00529,-0.025763 0,-0.021718 0.00275,-0.045278 0.00873,-0.074568 0.012489,-0.06129 0.017,-0.097773 0.016083,-0.1298176 -0.0012,-0.041407 -0.015224,-0.063648 -0.025906,-0.041091 l -0.00334,0.00706 -0.0028,-0.0081 c -0.00154,-0.00446 -0.00316,-0.0081 -0.003613,-0.0081 -4.4407e-4,0 -8.1055e-4,0.025605 -8.1055e-4,0.0569 z M -8.5597929e-4,1.5264538 c -8.1913071e-4,0.00146 -0.002271001,0.00197 -0.003228001,0.00115 -0.001551,-0.00133 -0.001728,6.713e-4 -0.001661,0.018616 l 7.697e-5,0.020113 0.001661,-0.012966 c 0.001857,-0.01451 0.004391001,-0.022986 0.006033,-0.020177 0.002323,0.00396 0.001038,0.023608 -0.003442,0.052651 -0.006296,0.040801 -0.007087,0.065663 -0.002316,0.072732 0.001536,0.00227 0.002805001,0.00221 0.004953,-2.55e-4 0.002274,-0.0026 0.003209,-0.00257 0.004378,1.064e-4 0.001305,0.003 0.00148,4.057e-4 0.001412,-0.020968 l -7.696e-5,-0.024389 -0.001661,0.012898 c -0.002202,0.017102 -0.0053539993,0.028613 -0.007042,0.025724 -0.002223,-0.0038 -6.6416e-4,-0.022992 0.004479,-0.055111 0.003978,-0.024839 0.004844,-0.0331 0.004858,-0.046285 1.312e-5,-0.01358 -3.4531e-4,-0.016857 -0.002328,-0.021303 -0.002618,-0.00588 -0.003912,-0.00641 -0.006095999,-0.00252 z m 0.0162293993,0.00229 c 0.001422,0.00434 0.001643,0.013021 0.001643,0.064596 0,0.050615 -2.1972e-4,0.059569 -0.001461,0.059569 -9.3355e-4,0 -0.002036,-0.00572 -0.003051,-0.015806 -8.7445e-4,-0.0087 -0.001745,-0.017044 -0.001935,-0.018555 -1.9023e-4,-0.00151 -3.8118e-4,0.00746 -4.2431e-4,0.019929 l -7.838e-5,0.022678 0.009928,0 0.009928,0 0,-0.023823 c 0,-0.013102 -2.4379e-4,-0.023148 -5.4163e-4,-0.022323 -2.9802e-4,8.248e-4 -0.001309,0.00937 -0.002247,0.018981 -0.001171,0.012025 -0.002243,0.017768 -0.003429,0.018402 -0.001597,8.516e-4 -0.001726,-0.00355 -0.001726,-0.05885 0,-0.051759 2.2025e-4,-0.060444 0.001643,-0.064797 0.001575,-0.00481 0.0014,-0.00504 -0.004124,-0.00504 -0.005526,0 -0.005699,2.116e-4 -0.004124,0.00504 z m 0.34024096,-0.00244 c 0,0.00142 4.468e-4,0.00335 9.9315e-4,0.00428 6.1317e-4,0.00105 9.9316e-4,0.024713 9.9316e-4,0.061847 0,0.037134 -3.7992e-4,0.060798 -9.9316e-4,0.061847 -0.002301,0.00394 -7.1375e-4,0.00713 0.003148,0.00634 l 0.004142,-8.448e-4 0.003209,-0.039856 0.003209,-0.039857 9.68e-5,0.035517 c 8.024e-5,0.02945 -1.8398e-4,0.036376 -0.001548,0.040544 -0.001571,0.00479 -0.001435,0.00504 0.002979,0.00504 0.004328,0 0.005902,-0.00298 0.003631,-0.00687 -6.1648e-4,-0.00105 -9.9315e-4,-0.026206 -9.9315e-4,-0.066323 l 0,-0.064624 -0.002217,8.783e-4 c -0.002025,8.016e-4 -0.002581,0.00532 -0.006368,0.05173 l -0.004151,0.050852 -8.571e-5,-0.046513 c -7.297e-5,-0.039644 1.57e-4,-0.047255 0.001559,-0.05154 0.001571,-0.00479 0.001435,-0.00504 -0.002979,-0.00504 -0.002543,0 -0.004621,0.00116 -0.004621,0.00259 z m 0.0251663,0.00244 c 0.00142,0.00434 0.001643,0.012966 0.001643,0.063692 0,0.050731 -2.2223e-4,0.059346 -0.001643,0.063692 -0.001572,0.00481 -0.001407,0.00504 0.003895,0.00504 0.007045,0 0.0108869,-0.00795 0.0125188,-0.025917 0.001752,-0.01926 0.001346,-0.074585 -6.6709e-4,-0.090861 -0.002025,-0.016368 -0.00447,-0.020562 -0.0120266,-0.020619 -0.005137,-3.88e-5 -0.005295,1.75e-4 -0.003724,0.00499 z m 0.0102693,0.010485 c 0.001325,0.00561 0.001814,0.015042 0.002127,0.041135 6.0504e-4,0.050325 -8.8521e-4,0.072542 -0.004863,0.072542 -5.3924e-4,0 -9.221e-4,-0.025091 -9.221e-4,-0.060473 0,-0.037531 3.6802e-4,-0.060473 9.7026e-4,-0.060473 5.3353e-4,0 0.001744,0.00327 0.00269,0.00727 z m -0.47681237,0.281406 c -3.4263e-4,0.00154 0.002055,0.010499 0.005322,0.019929 0.003271,0.00942 0.006209,0.02023 0.006533,0.024009 5.5782e-4,0.00651 0.0131801,0.2628402 0.0229494,0.4659163 0.002469,0.051402 0.004919,0.096242 0.005435,0.099643 8.3439e-4,0.0055 0.001641,0.00619 0.007291,0.00619 0.003909,0 0.006725,-0.00132 0.007312,-0.00343 5.2737e-4,-0.00188 0.003532,-0.054151 0.006674,-0.1161357 C -0.00666969,1.9701105 -8.3218929e-4,1.8609354 3.4371071e-4,1.856838 0.00105031,1.854368 0.00405071,1.846053 0.00700971,1.83835 c 0.00328,-0.00855 0.0051,-0.015279 0.004659,-0.017255 -5.216e-4,-0.00233 -0.007079,-0.00324 -0.0235029,-0.00324 -0.0187454,0 -0.0227793,6.742e-4 -0.0227793,0.0038 0,0.0021 0.002443,0.011057 0.00543,0.019929 0.00403,0.011957 0.00544,0.018249 0.005468,0.024369 6.037e-5,0.014187 -0.004143,0.090535 -0.005186,0.094145 -6.928e-4,0.0024 -0.004546,0.00343 -0.0128161,0.00343 -0.008559,0 -0.011949,-9.493e-4 -0.0122748,-0.00343 -8.201e-4,-0.00626 -0.004455,-0.082801 -0.004455,-0.093822 0,-0.00938 7.3425e-4,-0.012966 0.005526,-0.026855 0.003038,-0.00882 0.005246,-0.017279 0.004907,-0.018801 -8.3916e-4,-0.00376 -0.03690731,-0.00373 -0.0377463,2.21e-5 z m 0.0544844,0.1890071 c 5.9933e-4,0.00268 -0.009562,0.201276 -0.0102992,0.201276 -4.8156e-4,0 -0.0100051,-0.1914904 -0.009942,-0.1999729 1.806e-5,-0.00251 0.002674,-0.00343 0.009896,-0.00343 0.00543,0 0.0100852,9.597e-4 0.0103469,0.00212 z m 0.0467926,-0.1889876 c -4.0529e-4,0.00181 0.00183,0.00997 0.005355,0.019509 0.003328,0.00901 0.006504,0.018733 0.007058,0.021595 6.5893e-4,0.00341 0.001006,0.095394 0.001006,0.2666594 l 0,0.2614571 -0.007005,0.02049 c -0.003854,0.011275 -0.00673,0.021719 -0.006395,0.023221 8.4153e-4,0.00376 0.0432251,0.00354 0.05070269,-2.734e-4 0.0132183,-0.00674 0.0231263,-0.026866 0.0287216,-0.058335 0.005405,-0.030392 0.006735,-0.053037 0.006178,-0.1049612 C 0.100446,2.2058942 0.0969969,2.1786722 0.0860618,2.151005 l -0.0055,-0.013915 0.00323,-0.00621 C 0.095614,2.108166 0.1009581,2.072092 0.1020667,2.0075066 0.1036957,1.9125596 0.0949837,1.8471859 0.0777642,1.8251557 c -0.004359,-0.00558 -0.006385,-0.00599 -0.0330972,-0.00678 -0.0204328,-6.036e-4 -0.0286508,3.82e-5 -0.0291503,0.00227 z m 0.05321626,0.044675 c 0.006761,0.012612 0.009421,0.055294 0.008596,0.1379982 -5.2399e-4,0.052547 -0.00167,0.069287 -0.005935,0.086635 -0.00356,0.014476 -0.006783,0.019542 -0.0135101,0.021229 l -0.006109,0.00153 0,-0.126825 0,-0.1268248 0.006804,0 c 0.005436,0 0.00748,0.00126 0.0101547,0.00626 z m -0.004015,0.2940495 c 0.008321,0.011617 0.0116995,0.039538 0.0125734,0.1039317 6.0885e-4,0.044868 -5.9695e-4,0.080731 -0.003323,0.098791 -0.003147,0.020845 -0.00966,0.032985 -0.0176973,0.032985 l -0.0045,0 0,-0.1209458 0,-0.1209458 0.004256,0 c 0.002441,0 0.006147,0.00263 0.008688,0.00619 z m 0.050082,-0.3386763 c -4.1866e-4,0.00188 0.001466,0.00886 0.004623,0.01713 0.009765,0.025585 0.008795,-0.00644 0.008783,0.2892475 -4.93e-6,0.1593916 -3.7469e-4,0.2627394 -9.4784e-4,0.2652561 -5.1685e-4,0.00227 -0.003714,0.011889 -0.007103,0.021392 -0.004329,0.012134 -0.005852,0.018132 -0.005114,0.020174 7.0326e-4,0.00195 0.009358,0.00255 0.0262314,0.00183 0.0235668,-10e-4 0.0255639,-0.00148 0.0311396,-0.00753 0.0115236,-0.012476 0.0176153,-0.02783 0.0225212,-0.056753 0.004766,-0.028109 0.006032,-0.051438 0.005492,-0.1014463 -6.876e-4,-0.064176 -0.004134,-0.091333 -0.0151053,-0.1190917 l -0.005534,-0.014002 0.003835,-0.00704 c 0.0108582,-0.01989 0.0167485,-0.060477 0.0177636,-0.1223829 0.001562,-0.09523 -0.007124,-0.1603403 -0.0243284,-0.1823508 -0.004359,-0.00558 -0.006385,-0.00599 -0.0330974,-0.00678 -0.0206845,-6.108e-4 -0.0286477,2.47e-5 -0.0291614,0.00233 z m 0.0532272,0.044626 c 0.004454,0.0083 0.006652,0.025382 0.008009,0.062135 0.001444,0.039197 5.4881e-4,0.1209841 -0.001526,0.139386 -0.003334,0.029578 -0.00851,0.042782 -0.0174689,0.044577 l -0.00597,0.00119 0,-0.1267744 0,-0.1267731 0.006803,0 c 0.005436,0 0.00748,0.00126 0.0101547,0.00626 z m -0.004449,0.2931009 c 0.004754,0.00598 0.007431,0.015543 0.009688,0.03462 0.005032,0.042541 0.004651,0.145206 -6.4368e-4,0.1733981 -0.003644,0.019399 -0.009146,0.028636 -0.0170551,0.028636 l -0.004499,0 0,-0.1209458 0,-0.1209458 0.00422,6.04e-5 c 0.002321,3.33e-5 0.006051,0.00237 0.008291,0.00519 z m 0.0624614,-0.3378572 c -3.3541e-4,0.0015 0.002543,0.011957 0.006396,0.023222 l 0.007005,0.02049 -5.98e-6,0.1052843 -5.93e-6,0.1052842 -0.0109114,0.1498078 c -0.006002,0.082394 -0.011135,0.1524764 -0.0114091,0.1557384 -2.7382e-4,0.00326 -0.003395,0.016104 -0.006933,0.028542 -0.003538,0.012435 -0.006195,0.023683 -0.005902,0.024993 7.7907e-4,0.00349 0.045824,0.00305 0.0466066,-4.537e-4 3.4821e-4,-0.00157 -0.002307,-0.010662 -0.005898,-0.02022 -0.003594,-0.00956 -0.006532,-0.018664 -0.006532,-0.020225 0,-0.00376 0.0128066,-0.1791794 0.013596,-0.1862405 3.6034e-4,-0.00321 0.003683,0.034369 0.008014,0.090655 l 0.007399,0.096152 -0.006562,0.017211 c -0.00361,0.00946 -0.006562,0.019077 -0.006562,0.021358 0,0.00357 0.003034,0.00414 0.0218449,0.00414 0.0168267,0 0.0218449,-7.916e-4 0.0218449,-0.00343 0,-0.00189 -0.002519,-0.010853 -0.005596,-0.019929 -0.003078,-0.00907 -0.006209,-0.019075 -0.006962,-0.022238 -7.519e-4,-0.00316 -0.006277,-0.069855 -0.0122776,-0.1482056 l -0.0109114,-0.1424549 0,-0.1178808 0,-0.1178809 0.007005,-0.02049 c 0.003853,-0.011275 0.00673,-0.021719 0.006395,-0.023222 -3.771e-4,-0.00169 -0.009851,-0.00272 -0.02482,-0.00272 -0.0149687,0 -0.024443,0.00104 -0.02482,0.00272 z m 0.0764101,2.127e-4 c -3.6157e-4,0.00162 0.001897,0.00995 0.005016,0.018529 0.003121,0.00858 0.006295,0.018035 0.007054,0.021032 0.001152,0.00455 0.001378,0.048294 0.001378,0.2667313 0,0.2340706 -1.6397e-4,0.2619323 -0.001575,0.2675067 -8.6586e-4,0.00342 -0.004078,0.012993 -0.007137,0.021259 -0.003709,0.010021 -0.005232,0.015952 -0.004572,0.017784 6.3796e-4,0.00176 0.0151794,0.00249 0.04065,0.00203 l 0.0396569,-7.199e-4 0,-0.1072026 c 0,-0.093165 -1.9384e-4,-0.1072013 -0.00148,-0.1072013 -0.001087,0 -0.003775,0.021907 -0.0101165,0.082439 -0.006591,0.062929 -0.009146,0.083581 -0.0107942,0.087273 -0.001733,0.00388 -0.004085,0.00484 -0.0119763,0.00484 l -0.009819,0 0,-0.121104 0,-0.1211041 0.00422,8.45e-4 0.00422,8.449e-4 0.006096,0.032884 c 0.003352,0.018085 0.006591,0.033341 0.007199,0.033901 7.9433e-4,7.341e-4 0.001103,-0.024825 0.001103,-0.091294 0,-0.050771 -3.6701e-4,-0.092313 -8.1578e-4,-0.092313 -4.4859e-4,0 -0.003211,0.013915 -0.006137,0.030923 -0.006609,0.038405 -0.007246,0.040544 -0.0120676,0.040544 l -0.003818,0 0,-0.1226814 0,-0.1226815 0.004277,-0.011316 c 0.002352,-0.00623 0.005966,-0.015271 0.008037,-0.020099 0.002067,-0.00482 0.003469,-0.010089 0.003113,-0.011685 -9.0401e-4,-0.00405 -0.0508074,-0.004 -0.0517119,4.14e-5 z m 0.12961784,-5.405e-4 c -0.0120662,0.010962 -0.019984,0.041233 -0.0252521,0.096551 -0.005079,0.053315 -0.005959,0.084515 -0.005991,0.211655 -3.027e-5,0.1246257 5.5838e-4,0.1482449 0.004987,0.2001095 0.004323,0.050628 0.011994,0.086034 0.0217501,0.1003774 0.003133,0.0046 0.005766,0.00592 0.0119613,0.00595 0.006889,4.13e-5 0.008559,-9.534e-4 0.0125775,-0.0075 0.0127411,-0.020734 0.0209299,-0.071693 0.0248489,-0.1546378 0.002068,-0.043699 0.001749,-0.2513083 -4.5428e-4,-0.2943133 -0.004364,-0.085426 -0.0125039,-0.1353243 -0.0249293,-0.1528887 -0.004446,-0.00628 -0.0152048,-0.00922 -0.0194968,-0.00532 z m 0.01064,0.042974 c 0.004328,0.0084 0.008137,0.049809 0.0102378,0.1113011 5.9361e-4,0.017384 0.001338,0.07243 0.001657,0.1223201 0.001266,0.1975248 -0.004858,0.30716 -0.0165848,0.2968566 -0.005083,-0.00447 -0.00882,-0.03537 -0.0116326,-0.096196 -0.00211,-0.045663 -0.002432,-0.2628535 -4.732e-4,-0.3188572 0.002787,-0.07965 0.007332,-0.1195715 0.0136082,-0.1195715 5.7642e-4,0 0.002008,0.00187 0.003185,0.00414 z m 0.0856774,-0.042974 c -0.0120662,0.010962 -0.0199843,0.041233 -0.0252525,0.096551 -0.005125,0.053849 -0.005979,0.084278 -0.006,0.2144036 -1.627e-5,0.1011027 2.5482e-4,0.1245671 0.00176,0.1519097 0.003305,0.060213 0.009087,0.1042345 0.0167136,0.127129 0.006454,0.019372 0.0107396,0.024598 0.0202374,0.024653 0.006884,4.12e-5 0.008563,-9.537e-4 0.0125775,-0.0075 0.0127847,-0.020806 0.0208661,-0.071113 0.0248408,-0.1546372 0.002079,-0.043598 0.00176,-0.2511751 -4.4543e-4,-0.2943132 -0.004392,-0.085979 -0.0124507,-0.135248 -0.0250116,-0.1530057 -0.004364,-0.00617 -0.0151657,-0.00905 -0.0194149,-0.0052 z m 0.0113927,0.04536 c 0.007915,0.021913 0.0121889,0.1389251 0.0111541,0.305454 -7.371e-4,0.1186116 -0.003211,0.1780582 -0.008614,0.2074156 -0.002368,0.012871 -0.006186,0.019306 -0.008789,0.014835 -0.00493,-0.00845 -0.008954,-0.047096 -0.0112782,-0.1081774 -0.001729,-0.04539 -0.001729,-0.2568304 -6.91e-6,-0.3064877 0.002799,-0.080786 0.007295,-0.1195715 0.013862,-0.1195715 7.2278e-4,0 0.002377,0.00294 0.003673,0.00653 z m 0.0690429,-0.043975 c 0,0.00208 0.00279,0.011425 0.006205,0.020755 l 0.006205,0.016968 2.6255e-4,0.2692397 2.6263e-4,0.2692398 -0.005856,0 c -0.003871,0 -0.006247,-0.00133 -0.007028,-0.00395 -6.5084e-4,-0.00217 -0.004693,-0.041097 -0.008985,-0.086503 -0.004292,-0.045406 -0.008078,-0.083831 -0.008429,-0.085388 -3.4754e-4,-0.00157 -0.001276,-0.00283 -0.002079,-0.00283 -0.001245,0 -0.001409,0.015056 -0.001183,0.1078898 l 2.5976e-4,0.1078897 0.0446829,0 0.0446829,0 2.5976e-4,-0.1078897 c 2.2353e-4,-0.092834 5.847e-5,-0.1078898 -0.001183,-0.1078898 -7.9337e-4,0 -0.001729,0.00127 -0.002079,0.00283 -3.4827e-4,0.00155 -0.004147,0.040019 -0.008459,0.085464 -0.004301,0.045446 -0.008345,0.084369 -0.008985,0.086499 -7.5757e-4,0.00253 -0.003192,0.00387 -0.007009,0.00387 l -0.005856,0 2.6265e-4,-0.2694281 2.6264e-4,-0.2694278 0.006205,-0.016811 c 0.003418,-0.00924 0.006205,-0.018502 0.006205,-0.020567 0,-0.00306 -0.004424,-0.00376 -0.0243273,-0.00376 -0.0200047,0 -0.0243273,6.732e-4 -0.0243273,0.00379 z m 0.11368878,-0.00102 c -3.3981e-4,0.00153 -0.001677,0.025334 -0.002986,0.052914 -0.001307,0.027581 -0.007086,0.1503384 -0.0128407,0.2727958 -0.005763,0.1224579 -0.0107001,0.2263612 -0.0109755,0.2308965 -2.7714e-4,0.00455 -0.003374,0.018088 -0.006915,0.030237 -0.003532,0.012093 -0.006421,0.023537 -0.006454,0.025427 -4.787e-5,0.0043 0.0461527,0.00506 0.0471127,7.533e-4 3.2986e-4,-0.00147 -0.001883,-0.010771 -0.004899,-0.020653 -0.004274,-0.013953 -0.005505,-0.019955 -0.005445,-0.026863 9.72e-5,-0.017085 0.0135851,-0.2919843 0.0141313,-0.2878964 6.7514e-4,0.0051 0.0116913,0.2787701 0.0116531,0.2895458 -1.875e-5,0.00573 -0.001596,0.012338 -0.005973,0.024972 -0.003279,0.00945 -0.005953,0.018616 -0.005953,0.020378 0,0.00233 0.005641,0.0032 0.0208514,0.0032 0.0177421,0 0.0208513,-6.009e-4 0.0208513,-0.00407 0,-0.00223 -0.002674,-0.011821 -0.005953,-0.021304 -0.004079,-0.011834 -0.005953,-0.019388 -0.005915,-0.024106 7.046e-5,-0.014908 0.0146387,-0.2924832 0.0151462,-0.2886208 2.9882e-4,0.00226 0.003123,0.069974 0.006265,0.1504569 l 0.00572,0.1463336 -0.006187,0.017863 c -0.003435,0.00983 -0.005934,0.019124 -0.005582,0.02066 3.8957e-4,0.00174 0.008412,0.00279 0.0214174,0.00279 0.0173128,0 0.0207929,-6.532e-4 0.0207929,-0.0039 0,-0.00214 -0.002869,-0.01253 -0.006344,-0.023066 -0.003495,-0.01054 -0.006636,-0.022697 -0.006948,-0.027017 -3.2571e-4,-0.00432 -0.003728,-0.087024 -0.007574,-0.1837801 -0.012707,-0.3202208 -0.01499,-0.3762538 -0.0154975,-0.3784896 -2.7188e-4,-0.00122 -0.003142,-0.00221 -0.006382,-0.00221 -0.005269,0 -0.005934,6.331e-4 -0.006402,0.00619 -2.9336e-4,0.00339 -0.004568,0.087204 -0.009467,0.186229 -0.009135,0.183932 -0.009915,0.1987733 -0.0104233,0.1973522 -1.5829e-4,-4.485e-4 -0.003709,-0.085546 -0.007866,-0.189106 -0.004177,-0.1035596 -0.007788,-0.1910736 -0.008041,-0.1944752 -4.2803e-4,-0.00558 -0.00106,-0.00619 -0.006344,-0.00619 -0.003239,0 -0.006168,0.00125 -0.0065,0.00277 z m 0.10224673,1.275e-4 c -3.6303e-4,0.00162 0.001378,0.00852 0.003865,0.01533 0.002498,0.00681 0.005661,0.016096 0.007046,0.020649 l 0.002519,0.00828 0,0.2620856 0,0.2620856 -0.002361,0.00777 c -0.001296,0.00426 -0.00449,0.013689 -0.007105,0.02092 -0.003084,0.00856 -0.00441,0.014088 -0.003786,0.015838 6.082e-4,0.00169 0.0157707,0.00241 0.0406274,0.00196 l 0.0396549,-7.152e-4 2.5973e-4,-0.1078898 c 2.3e-4,-0.095516 8.453e-5,-0.1078883 -0.001265,-0.1078883 -0.00195,0 -0.0018,-0.00126 -0.0110028,0.087961 -0.005645,0.054795 -0.008413,0.077292 -0.0100071,0.081777 -0.002004,0.00561 -0.003163,0.00619 -0.0121753,0.00619 l -0.00998,0 0,-0.1209458 0,-0.1209458 0.003831,0 c 0.004799,0 0.005468,0.00219 0.011998,0.03917 0.002863,0.01625 0.005618,0.02955 0.006108,0.02955 5.102e-4,0 8.9168e-4,-0.03963 8.9168e-4,-0.092313 0,-0.063032 -3.2954e-4,-0.092009 -0.001039,-0.091354 -5.7223e-4,5.272e-4 -0.003804,0.016402 -0.007199,0.035276 l -0.006162,0.034317 -0.004213,8.449e-4 -0.004213,8.449e-4 0,-0.125227 0,-0.1252269 0.009393,0 c 0.0105255,0 0.0138578,0.00291 0.015303,0.013416 5.4823e-4,0.00396 0.004417,0.041219 0.00859,0.082794 0.007226,0.071882 0.009558,0.088987 0.0108664,0.079507 2.99e-4,-0.00215 4.2729e-4,-0.051552 2.84e-4,-0.1097535 l -2.829e-4,-0.1058409 -0.0399013,-7.179e-4 c -0.0276731,-4.983e-4 -0.0401043,1.883e-4 -0.040561,0.00223 z m 0.08939,-1.05e-4 c -3.4277e-4,0.00154 0.002045,0.010499 0.005331,0.019929 0.00326,0.00942 0.0062,0.02023 0.00652,0.024009 5.435e-4,0.00637 0.014327,0.2862403 0.023475,0.4769114 0.00218,0.045356 0.00417,0.085246 0.00444,0.088647 4.48e-4,0.00569 0.00104,0.00619 0.00743,0.00619 0.00627,0 0.00705,-6.15e-4 0.00791,-0.00619 5.245e-4,-0.00341 0.00678,-0.1206023 0.013897,-0.2604459 0.016045,-0.3154106 0.015634,-0.307966 0.017684,-0.3144281 9.25e-4,-0.0029 0.0038,-0.010812 0.00641,-0.017596 0.00259,-0.00678 0.00472,-0.01401 0.00472,-0.016072 0,-0.00305 -0.00429,-0.00375 -0.023336,-0.00375 -0.018015,0 -0.023328,7.824e-4 -0.023305,0.00343 1.61e-5,0.00189 0.00248,0.010689 0.00544,0.019558 0.00417,0.012408 0.00543,0.018107 0.00544,0.024739 10e-6,0.015172 -0.0042,0.090951 -0.00523,0.094598 -7.485e-4,0.00259 -0.00417,0.00331 -0.013034,0.00275 l -0.012025,-7.685e-4 -0.00214,-0.039856 c -0.00117,-0.021921 -0.00218,-0.04593 -0.00222,-0.053353 -9.13e-5,-0.012762 2.034e-4,-0.014364 0.00543,-0.029529 0.00304,-0.00882 0.00524,-0.017279 0.0049,-0.018802 -8.392e-4,-0.00376 -0.0369077,-0.00373 -0.0377461,2.21e-5 z m 0.0544848,0.1890068 c 5.96e-4,0.00268 -0.00956,0.2012762 -0.010307,0.2012762 -4.815e-4,0 -0.010007,-0.1914903 -0.00994,-0.1999728 1.78e-5,-0.00251 0.00267,-0.00343 0.0099,-0.00343 0.00543,0 0.010089,9.596e-4 0.010348,0.00212 z"
         id="path3073"
         inkscape:connector-curvature="0"
         inkscape:export-filename="C:\Users\Justin\Desktop\Project files\fabbyfootwear\img\logo.png"
         inkscape:export-xdpi="90"
         inkscape:export-ydpi="90" />
    </g>
  </g>
</svg>
